# xmcd
#
# Track frame offsets:
#	150
#	20709
#	40584
#	58827
#	76050
#	95635
#	118130
#	132494
#	150998
#	169177
#	186392
#	207041
#	225406
#	247163
#	269379
#
# Disc length: 3907 seconds
#
# Revision: 2
# Processed by: cddbd v1.5.2PL0 Copyright (c) Steve Scherf et al.
# Submitted via: EasyCDDAExtractor 10.0.5.1
#
DISCID=cc0f410f
DTITLE=Various Artist - 超級女聲 - 華語篇CD1
DYEAR=2005
DGENRE=Duet
TTITLE0=林憶蓮 - 至少還有你
TTITLE1=范曉萱 - 我要我們在一起
TTITLE2=王菲 - 流星
TTITLE3=那英 - 夢一場
TTITLE4=蕭亞軒 - 最熟悉的陌生人
TTITLE5=順子 - 回家
TTITLE6=陳慧琳 - 不如跳舞
TTITLE7=張韶涵 - 寓言
TTITLE8=戴佩妮 - 你要的愛
TTITLE9=蔡健雅 - True Love
TTITLE10=許茹芸 - 獨角戲
TTITLE11=陳潔儀 - 擔心
TTITLE12=關淑怡 - 亂了
TTITLE13=許慧欣 - 我美麗的愛情
TTITLE14=許美靜 - 城裡的月光
EXTD=
EXTT0=
EXTT1=
EXTT2=
EXTT3=
EXTT4=
EXTT5=
EXTT6=
EXTT7=
EXTT8=
EXTT9=
EXTT10=
EXTT11=
EXTT12=
EXTT13=
EXTT14=
PLAYORDER=
